<!-- pgrep app icon: the exact hand-drawn tri-lobe mark (traced from
     design/assets/reference/logo.png) on the warm canvas. Vector source of
     truth for the raster icons (desktop pgrep.png, iOS AppIcon, pgrep.icns).
     The in-app glyph uses the same path via PgrepMark.svelte. -->
<svg xmlns="http://www.w3.org/2000/svg" width="1024" height="1024" viewBox="2.83 12.33 233.33 233.33">
  <rect x="2.83" y="12.33" width="233.33" height="233.33" fill="#fbfaf8"/>
  <path d="M140.29 205.55 C131.01 202.65 127.17 199.42 110.37 180.36 C102.98 171.99 96.70 168.40 81.92 164.11 C76.10 162.42 69.80 160.39 67.92 159.60 C45.42 150.15 38.98 119.42 55.63 100.99 C63.37 92.42 70.15 89.53 87.50 87.40 C108.08 84.88 112.79 82.52 126.00 68.12 C134.81 58.51 140.80 54.56 148.82 53.03 C164.36 50.09 182.04 60.19 190.15 76.65 C193.24 82.94 193.50 84.19 193.49 92.98 C193.48 101.10 192.98 103.98 190.13 112.50 C185.35 126.83 185.31 134.93 189.99 149.00 C195.81 166.52 194.77 177.98 186.20 190.43 C182.31 196.09 172.90 202.64 165.30 204.99 C157.79 207.31 146.71 207.56 140.29 205.55 Z M168.79 198.93 C179.86 193.48 186.79 184.56 189.03 172.89 C190.30 166.30 189.72 162.25 185.77 150.00 C181.34 136.28 181.37 126.26 185.87 112.04 C190.10 98.70 190.67 93.15 188.62 85.15 C184.54 69.25 171.55 58.13 156.00 57.24 C144.78 56.60 141.18 58.52 127.60 72.42 C113.06 87.31 109.54 89.02 88.27 91.51 C74.10 93.17 67.77 95.51 61.05 101.57 C47.56 113.76 47.07 136.07 60.00 149.00 C65.13 154.13 69.28 156.15 82.52 159.98 C101.65 165.51 105.33 168.05 122.84 187.78 C133.32 199.59 141.16 203.28 154.35 202.59 C160.66 202.26 163.50 201.54 168.79 198.93 Z M137.59 186.48 C133.68 184.99 123.39 177.65 122.81 175.94 C122.05 173.70 109.10 161.59 105.50 159.75 C103.30 158.62 97.45 156.40 92.50 154.80 C83.06 151.75 77.92 148.92 73.47 144.28 C66.16 136.69 64.52 124.33 69.58 115.04 C74.95 105.17 82.36 101.14 100.79 98.06 C107.54 96.94 114.52 95.28 116.29 94.39 C118.05 93.50 123.60 88.77 128.61 83.89 C137.90 74.83 141.28 72.75 148.71 71.53 C158.09 69.99 169.71 76.53 175.69 86.73 C179.83 93.81 180.11 104.26 176.45 115.72 C172.93 126.75 172.74 136.24 175.84 146.98 C178.52 156.27 178.57 162.40 176.02 169.21 C173.38 176.26 169.34 180.95 162.87 184.48 C158.46 186.87 156.12 187.44 149.51 187.68 C144.17 187.88 140.20 187.48 137.59 186.48 Z M157.50 182.34 C166.91 179.14 174.03 168.87 173.98 158.57 C173.97 156.33 172.85 150.25 171.48 145.05 C168.34 133.09 168.37 131.59 172.00 117.50 C175.13 105.36 175.67 98.83 174.02 93.08 C171.23 83.34 161.67 76.03 151.71 76.01 C144.01 76.00 140.21 78.10 131.00 87.50 C120.69 98.02 114.77 100.76 98.52 102.55 C81.37 104.43 71.00 113.70 71.00 127.16 C71.00 138.29 78.74 146.56 93.20 150.86 C106.30 154.77 112.35 158.44 120.81 167.65 C125.04 172.26 130.16 177.19 132.20 178.61 C139.98 184.06 148.70 185.34 157.50 182.34 Z M138.65 166.49 C133.98 165.30 131.26 163.57 121.24 155.41 C118.49 153.16 113.14 150.03 109.36 148.46 C95.82 142.80 91.14 138.39 90.24 130.47 C89.61 124.81 90.41 121.86 93.63 118.03 C97.26 113.71 102.61 111.22 113.05 108.99 C123.46 106.76 124.83 106.14 131.50 100.51 C142.68 91.08 150.84 89.98 158.37 96.87 C164.44 102.42 165.40 109.66 161.87 123.26 C160.01 130.46 159.87 132.47 160.74 139.70 C161.29 144.23 161.42 149.70 161.02 151.86 C158.94 163.27 149.72 169.30 138.65 166.49 Z M150.70 161.04 C156.22 157.68 157.09 154.66 156.83 139.74 C156.65 129.57 156.99 125.24 158.30 121.07 C162.73 106.92 158.15 97.00 147.19 97.00 C143.12 97.00 138.24 99.65 132.50 104.99 C128.10 109.08 123.97 110.87 114.00 113.00 C103.57 115.23 100.20 116.79 96.62 121.04 C90.50 128.31 95.36 138.59 107.00 143.01 C114.65 145.91 120.82 149.55 127.53 155.09 C131.39 158.29 135.67 161.34 137.03 161.89 C141.12 163.52 147.26 163.14 150.70 161.04 Z" fill="#262624"/>
</svg>
