<!-- pgrep app icon. The nested-contour blob mark (the in-app NavRail glyph) on
     the warm light canvas. Vector source of truth for the raster icons: the
     desktop dev-window icon (qt/aqt/data/qt/icons/pgrep.png), the iOS AppIcon
     (mobile/ios/PgrepStudy/Assets.xcassets), and pgrep.icns for L6.2 packaging. -->
<svg xmlns="http://www.w3.org/2000/svg" width="1024" height="1024" viewBox="0 0 1024 1024">
  <rect width="1024" height="1024" fill="#fbfaf8" />
  <g transform="translate(132,132) scale(23.75)" fill="none" stroke="#262624" stroke-width="1.2" stroke-linecap="round" stroke-linejoin="round">
    <path d="M16 3.5 C22 3.5 28.5 7.5 28.5 14 C28.5 19 25 21 24 24.5 C23 27.5 20 29 16 28.5 C10.5 28 6.5 25.5 4.5 21 C2.5 16.5 3.5 10.5 7.5 7 C10 4.8 13 3.5 16 3.5 Z" />
    <path d="M16 8 C20 8 24 10.5 24 14.5 C24 17.5 22 19 21.2 21.2 C20.5 23.2 18.5 24.3 16 24 C12.5 23.6 10 22 8.8 19 C7.6 16 8.2 12.5 10.6 10.3 C12.2 8.9 14 8 16 8 Z" />
    <path d="M16 12.5 C18.2 12.5 20 13.8 20 15.8 C20 17.3 19 18.1 18.6 19.2 C18.2 20.2 17.2 20.8 16 20.6 C14.2 20.4 13 19.5 12.4 18 C11.8 16.5 12.1 14.8 13.3 13.7 C14.1 13 15 12.5 16 12.5 Z" />
  </g>
</svg>
